<svg width="32" height="32" viewBox="0 0 32 32" fill="none" xmlns="http://www.w3.org/2000/svg">
<path opacity="0.4" d="M12 2.66667C8.50663 2.66667 5.66663 5.50667 5.66663 9C5.66663 12.4267 8.34663 15.2 11.84 15.32C11.9466 15.3067 12.0533 15.3067 12.1333 15.32H12.2266C13.8658 15.2653 15.4194 14.5753 16.559 13.3959C17.6986 12.2164 18.3349 10.6401 18.3333 9C18.3333 5.50667 15.4933 2.66667 12 2.66667Z" fill="white"/>
<path d="M18.7733 18.8653C15.0533 16.3853 8.98661 16.3853 5.23995 18.8653C3.54661 19.9987 2.61328 21.532 2.61328 23.172C2.61328 24.812 3.54661 26.332 5.22661 27.452C7.09328 28.7053 9.54661 29.332 11.9999 29.332C14.4533 29.332 16.9066 28.7053 18.7733 27.452C20.4533 26.3187 21.3866 24.7987 21.3866 23.1453C21.3733 21.5053 20.4533 19.9853 18.7733 18.8653V18.8653Z" fill="white"/>
<path opacity="0.4" d="M26.6534 9.784C26.8667 12.3707 25.0267 14.6373 22.48 14.944H22.4134C22.3334 14.944 22.2534 14.944 22.1867 14.9707C20.8934 15.0373 19.7067 14.624 18.8134 13.864C20.1867 12.6373 20.9734 10.7973 20.8134 8.79733C20.7219 7.75734 20.3687 6.75741 19.7867 5.89067C20.4853 5.55077 21.2562 5.38596 22.0327 5.41043C22.8093 5.4349 23.5683 5.64793 24.2441 6.03114C24.92 6.41434 25.4925 6.95623 25.9122 7.61004C26.3319 8.26385 26.5863 9.00996 26.6534 9.784V9.784Z" fill="white"/>
<path d="M29.3173 22.12C29.2106 23.4133 28.384 24.5333 26.9973 25.2933C25.664 26.0267 23.984 26.3733 22.3173 26.3333C23.2773 25.4667 23.8373 24.3867 23.944 23.24C24.0773 21.5867 23.2906 20 21.7173 18.7333C20.824 18.0267 19.784 17.4667 18.6506 17.0533C21.5973 16.2 25.304 16.7733 27.584 18.6133C28.8106 19.6 29.4373 20.84 29.3173 22.12V22.12Z" fill="white"/>
</svg>
