<svg width="40" height="40" viewBox="0 0 40 40" fill="none" xmlns="http://www.w3.org/2000/svg">
<path opacity="0.4" d="M19.95 36.6667C29.1567 36.6667 36.6167 29.205 36.6167 20C36.6167 10.795 29.1567 3.33333 19.95 3.33333C10.7467 3.33333 3.28333 10.795 3.28333 20C3.28333 29.205 10.7467 36.6667 19.95 36.6667V36.6667Z" fill="#B02424"/>
<path d="M25.4167 18.8333H22.5833V12.2333C22.5833 10.7 21.75 10.3833 20.7333 11.5333L20 12.3667L13.8 19.4167C12.95 20.3833 13.3 21.1667 14.5833 21.1667H17.4167V27.7667C17.4167 29.3 18.25 29.6167 19.2667 28.4667L20 27.6333L26.2 20.5833C27.05 19.6167 26.7 18.8333 25.4167 18.8333Z" fill="#B02424"/>
</svg>
