<svg width="40" height="40" viewBox="0 0 40 40" fill="none" xmlns="http://www.w3.org/2000/svg">
<path opacity="0.4" d="M20 36.6667C29.205 36.6667 36.6667 29.205 36.6667 20C36.6667 10.795 29.205 3.33334 20 3.33334C10.795 3.33334 3.33337 10.795 3.33337 20C3.33337 29.205 10.795 36.6667 20 36.6667Z" fill="#B02424"/>
<path d="M20.55 28.335C20.25 28.435 19.7333 28.435 19.4333 28.335C16.8333 27.4517 11 23.735 11 17.435C11 14.6517 13.2333 12.4017 16 12.4017C17.6333 12.4017 19.0833 13.185 20 14.4183C20.9 13.2017 22.3667 12.4017 24 12.4017C26.7667 12.4017 29 14.6517 29 17.435C29 23.735 23.1667 27.4517 20.55 28.335V28.335Z" fill="#B02424"/>
</svg>
