<svg width="32" height="32" viewBox="0 0 32 32" fill="none" xmlns="http://www.w3.org/2000/svg">
<path opacity="0.4" d="M25.1853 6.81334L7.71865 24.28C5.19865 20.8533 3.38531 16.48 4.50531 11.5867C5.19865 8.50667 6.90531 6.28 9.01198 4.81334C11.1186 3.36 13.6386 2.66667 15.9986 2.66667C19.252 2.66667 22.8253 3.97334 25.1853 6.81334V6.81334ZM21.04 27.9733C19.6884 29.2816 17.881 30.0131 16 30.0133C14.1866 30.0133 12.3733 29.32 10.96 27.96C10.48 27.5067 9.99998 27 9.51998 26.48L26.72 9.28C27.0533 10 27.3066 10.76 27.4933 11.6C29.0533 18.48 24.84 24.2933 21.04 27.9733V27.9733Z" fill="white"/>
<path d="M29.0253 2.972C28.9327 2.87403 28.8211 2.79598 28.6973 2.74264C28.5735 2.6893 28.4401 2.66179 28.3053 2.66179C28.1705 2.66179 28.0371 2.6893 27.9133 2.74264C27.7895 2.79598 27.6779 2.87403 27.5853 2.972L20.0253 10.532L19.0653 11.492C18.7145 11.0065 18.2538 10.6108 17.7208 10.3374C17.1878 10.0639 16.5977 9.92044 15.9987 9.91867C13.892 9.91867 12.172 11.6387 12.172 13.7453C12.172 14.9453 12.7587 16.0787 13.7453 16.812L2.97199 27.5853C2.55865 27.9853 2.55865 28.6253 2.97199 29.0253C3.17199 29.2253 3.42532 29.332 3.69199 29.332C3.95865 29.332 4.21199 29.2253 4.41199 29.0253L29.0253 4.412C29.4387 4.012 29.4387 3.372 29.0253 2.972V2.972Z" fill="white"/>
</svg>
