<svg width="32" height="32" viewBox="0 0 32 32" fill="none" xmlns="http://www.w3.org/2000/svg">
<path opacity="0.4" d="M25.7866 19.3173L24.4533 17.104C24.1733 16.6107 23.92 15.6773 23.92 15.1307V11.7573C23.92 7.41067 20.3866 3.864 16.0266 3.864C11.6666 3.864 8.1333 7.41067 8.1333 11.7573V15.1307C8.1333 15.6773 7.87996 16.6107 7.59996 17.0907L6.2533 19.3173C5.71996 20.2107 5.59996 21.1973 5.9333 22.104C6.2533 22.9973 7.0133 23.6907 7.99996 24.024C10.5866 24.904 13.3066 25.3307 16.0266 25.3307C18.7466 25.3307 21.4666 24.904 24.0533 24.0373C24.9866 23.7307 25.7066 23.024 26.0533 22.104C26.4 21.184 26.3066 20.1707 25.7866 19.3173V19.3173Z" fill="white"/>
<path d="M19 4.42667C18.08 4.06667 17.08 3.86667 16.0267 3.86667C14.9867 3.86667 13.9867 4.05333 13.0667 4.42667C13.64 3.34667 14.7733 2.66667 16.0267 2.66667C17.2933 2.66667 18.4133 3.34667 19 4.42667ZM19.7733 26.68C19.4929 27.4562 18.9804 28.1273 18.3053 28.602C17.6302 29.0767 16.8253 29.332 16 29.3333C14.9467 29.3333 13.9067 28.9067 13.1733 28.1467C12.7467 27.7467 12.4267 27.2133 12.24 26.6667C12.4133 26.6933 12.5867 26.7067 12.7733 26.7333C13.08 26.7733 13.4 26.8133 13.72 26.84C14.48 26.9067 15.2533 26.9467 16.0267 26.9467C16.7867 26.9467 17.5467 26.9067 18.2933 26.84C18.5733 26.8133 18.8533 26.8 19.12 26.76L19.7733 26.68V26.68Z" fill="white"/>
</svg>
