<svg width="40" height="40" viewBox="0 0 40 40" fill="none" xmlns="http://www.w3.org/2000/svg">
<path opacity="0.4" d="M20 36.6667C29.205 36.6667 36.6667 29.205 36.6667 20C36.6667 10.795 29.205 3.33333 20 3.33333C10.795 3.33333 3.33337 10.795 3.33337 20C3.33337 29.205 10.795 36.6667 20 36.6667Z" fill="#B02424"/>
<path d="M26.9166 21.3833L24.0333 22.35C23.2333 22.6167 22.6166 23.2333 22.3499 24.0333L21.3833 26.9167C20.5666 29.4 17.0666 29.35 16.2999 26.8667L13.0499 16.4C12.4166 14.3167 14.3333 12.4 16.3833 13.0333L26.8666 16.2833C29.3499 17.0667 29.3833 20.5667 26.9166 21.3833V21.3833Z" fill="#B02424"/>
</svg>
